<svg width="360" height="82" viewBox="0 0 360 82" fill="none" xmlns="http://www.w3.org/2000/svg">
<g clip-path="url(#clip0)">
<path d="M175.125 0L218.048 81.5775H234.444L191.521 0H175.125Z" fill="white"/>
<path d="M257.767 14.733H243.131V81.375H257.767V14.733Z" fill="white"/>
<path d="M272.403 0.211243H257.767V14.7331H272.403V0.211243Z" fill="white"/>
<path d="M173.126 66.7388H158.49V81.375H173.126V66.7388Z" fill="white"/>
<path d="M53.2467 37.1319C56.0718 33.2858 57.7441 28.542 57.7441 23.4022C57.7441 10.5878 47.3587 0.202454 34.5443 0.202454H0V32.0977V46.6107V81.5775H38.2848C51.9441 81.5775 63.0247 70.4969 63.0247 56.8376C63.0247 48.7934 59.1874 41.6557 53.2467 37.1319ZM14.5218 14.7331H34.5443C39.3321 14.7331 43.2222 18.6232 43.2222 23.411C43.2222 28.1988 39.3321 32.0889 34.5443 32.0889H14.5218V14.7331ZM38.2848 67.0556H14.5218V46.6195H38.2848C43.9175 46.6195 48.5029 51.2049 48.5029 56.8376C48.5029 62.4703 43.9263 67.0556 38.2848 67.0556Z" fill="white"/>
<path d="M345.074 81.375H359.71V0.211243H345.074H343.481L320.959 47.1827L298.437 0.211243H296.844H282.208V81.375H296.844V30.7335L312.844 64.1073L316.963 72.706H324.954L329.073 64.1073L345.074 30.7335V81.375Z" fill="white"/>
<path d="M127.915 81.375H145.43L126.006 51.8385C134.578 47.1916 140.404 38.1176 140.404 27.6707C140.404 12.5064 128.109 0.202454 112.936 0.202454H95.5449H80.9175V55.1302V81.3662H95.5537V55.139H110.656L127.915 81.375ZM95.5537 14.7331H112.945C120.082 14.7331 125.891 20.5418 125.891 27.6795C125.891 34.8172 120.082 40.6259 112.945 40.6259H95.5537V14.7331Z" fill="white"/>
<path d="M186.416 52.7891H173.126V67.4253H194.117L186.416 52.7891Z" fill="white"/>
</g>
<defs>
<clipPath id="clip0">
<rect width="359.71" height="81.5775" fill="white"/>
</clipPath>
</defs>
</svg>
