<svg width="33" height="33" viewBox="0 0 33 33" xmlns="http://www.w3.org/2000/svg">
<path d="M23.3455 0.807295H9.00293C4.13228 0.807295 0.169678 4.7522 0.169678 9.60087V23.8787C0.169678 28.7275 4.13228 32.6722 9.00293 32.6722H23.3455C28.2165 32.6722 32.1791 28.7273 32.1791 23.8787V9.60087C32.1793 4.7522 28.2165 0.807295 23.3455 0.807295ZM29.3393 23.8787C29.3393 27.1686 26.6505 29.845 23.3457 29.845H9.00293C5.69827 29.8452 3.00971 27.1686 3.00971 23.8787V9.60087C3.00971 6.31112 5.69827 3.63451 9.00293 3.63451H23.3455C26.6503 3.63451 29.3391 6.31112 29.3391 9.60087V23.8787H29.3393Z"/>
<path d="M16.174 8.52908C11.626 8.52908 7.92603 12.2124 7.92603 16.7399C7.92603 21.2672 11.626 24.9503 16.174 24.9503C20.7221 24.9503 24.4221 21.2672 24.4221 16.7399C24.4221 12.2124 20.7221 8.52908 16.174 8.52908ZM16.174 22.1229C13.1922 22.1229 10.7661 19.7081 10.7661 16.7397C10.7661 13.7711 13.192 11.3561 16.174 11.3561C19.1561 11.3561 21.582 13.7711 21.582 16.7397C21.582 19.7081 19.1559 22.1229 16.174 22.1229Z"/>
<path d="M24.768 6.13179C24.2208 6.13179 23.6833 6.35231 23.2969 6.7387C22.9085 7.1232 22.6853 7.65849 22.6853 8.20508C22.6853 8.74998 22.9087 9.28507 23.2969 9.67146C23.6831 10.056 24.2208 10.2784 24.768 10.2784C25.3171 10.2784 25.8529 10.056 26.241 9.67146C26.6292 9.28507 26.8507 8.74979 26.8507 8.20508C26.8507 7.65849 26.6292 7.1232 26.241 6.7387C25.8548 6.35231 25.3171 6.13179 24.768 6.13179Z" fill="#B1B1B1"/>
</svg>
