<svg width="99" height="53" viewBox="0 0 99 53" fill="none" xmlns="http://www.w3.org/2000/svg">
<g clip-path="url(#clip0)">
<path d="M2.48711 48.5959H0L2.78354 35.5776H5.27065L2.48711 48.5959Z" fill="#EF7D00"/>
<path d="M10.3316 48.5959H7.66376L10.0207 37.5893H6.3479L6.7817 35.5776H16.7808L16.3542 37.5893H12.6886L10.3316 48.5959Z" fill="#EF7D00"/>
<path d="M16.4915 48.8402L19.275 35.8219H29.1439L26.3604 48.8402H23.8733L26.2519 37.733H21.35L18.9786 48.8402H16.4915Z" fill="#00A7E7"/>
<path d="M28.4789 48.8402H26.3171L33.4748 35.8219H36.6271L38.196 48.8402H35.5281L34.3641 38.006H34.2195L28.4789 48.8402Z" fill="#00A7E7"/>
<path d="M49.0047 48.8402H46.3441L45.8235 45.133H40.6613L38.8611 48.8402H36.7427L44.1028 35.8219H47.1611L49.0047 48.8402ZM45.6428 43.8613L44.8764 38.0563L41.6229 43.8613H45.6428Z" fill="#00A7E7"/>
<path d="M59.6761 48.8402H57.189L58.3964 43.186H53.133L51.9256 48.8402H49.4385L52.222 35.8219H54.7091L53.5596 41.1743H58.8302L59.9725 35.8219H62.4597L59.6761 48.8402Z" fill="#00A7E7"/>
<path d="M64.2455 35.8219L61.4619 48.8402H70.4271L70.8609 46.8142H64.3828L65.1637 43.1716H70.2969L70.7018 41.2821H65.5685L66.3205 37.7545H72.2852L75.8279 37.7689L73.4781 48.8402H76.146L78.4957 37.7689L82.183 37.7545L82.5951 35.8219H64.2455Z" fill="#00A7E7"/>
<path d="M89.7095 48.8402H87.0489L86.5284 45.133H81.3662L79.5659 48.8402H77.4475L84.8076 35.8219H87.8659L89.7095 48.8402ZM86.3476 43.8613L85.5812 38.0563L82.3277 43.8613H86.3476Z" fill="#00A7E7"/>
<path d="M31.6528 20.5476C35.6438 14.7426 41.8326 10.1589 49.265 7.59399C60.6016 -5.23033 69.7042 0.905227 73.6951 6.30078C84.5039 3.76465 91.2061 11.3587 93.7655 16.783C89.8541 12.1274 85.5234 9.9505 81.0769 9.47633C91.799 14.7569 99 24.5638 99 35.8003C99 42.1801 96.672 48.1002 92.7027 52.9928C95.7827 48.5097 97.554 43.2937 97.554 37.7401C97.554 25.1529 88.5021 14.3474 75.5894 9.70623C58.0928 12.8027 40.6252 37.0145 40.6252 37.0145C51.81 20.1166 61.274 11.5455 69.0173 7.95321C66.5808 7.51496 64.0503 7.27787 61.4548 7.27787C58.0639 7.27787 54.7815 7.67302 51.6726 8.41302C42.9894 15.9783 36.8512 28.4506 36.8512 28.4506C40.5674 20.0806 44.1679 13.9738 47.5949 9.61283C41.1024 11.8903 35.5787 15.7125 31.6528 20.5476ZM62.9008 5.33806C66.3567 5.33806 69.6897 5.75476 72.8564 6.51631C73.001 6.47321 73.1529 6.43729 73.2975 6.40136C66.7977 0.941149 60.2691 2.24154 54.5646 6.15709C57.2397 5.62544 60.0305 5.33806 62.9008 5.33806Z" fill="#00A7E7"/>
</g>
<defs>
<clipPath id="clip0">
<rect width="99" height="53" fill="white"/>
</clipPath>
</defs>
</svg>
