<svg width="196" height="105" viewBox="0 0 196 105" fill="none" xmlns="http://www.w3.org/2000/svg">
<path fill-rule="evenodd" clip-rule="evenodd" d="M97.2569 15.0476C82.5841 20.1295 70.3663 29.2116 62.4876 40.7137C70.2379 31.1334 81.1425 23.5602 93.9598 19.0477C87.1943 27.6885 80.0863 39.7884 72.75 56.3724C72.75 56.3724 84.8678 31.6601 102.01 16.6704C108.147 15.2042 114.627 14.4212 121.321 14.4212C126.445 14.4212 131.441 14.891 136.251 15.7593C120.964 22.8769 102.281 39.8596 80.2005 73.3408C80.2005 73.3408 114.684 25.3681 149.225 19.2327C174.717 28.4287 192.587 49.8385 192.587 74.7786C192.587 85.7824 189.09 96.1172 183.01 105C190.846 95.3058 195.441 83.576 195.441 70.9351C195.441 48.6712 181.225 29.2401 160.058 18.7772C168.836 19.7167 177.386 24.03 185.108 33.2544C180.055 22.5068 166.824 7.46019 145.486 12.4852C137.607 1.79457 119.637 -10.3623 97.2569 15.0476ZM143.83 12.9123C137.578 11.4033 130.998 10.5777 124.176 10.5777C118.509 10.5777 113 11.1471 107.719 12.2005C118.98 4.44232 131.869 1.86574 144.701 12.6845C144.653 12.6963 144.606 12.7081 144.558 12.72C144.316 12.7797 144.068 12.841 143.83 12.9123ZM4.90994 96.2881H0L5.49514 70.4938H10.4051L4.90994 96.2881ZM20.3962 96.2881H15.1295L19.7825 74.4797H12.5318L13.3881 70.4938H33.1278L32.2857 74.4797H25.0493L20.3962 96.2881ZM38.0521 70.9776L32.5569 96.7718H37.4669L42.1484 74.7642H51.8256L47.1297 96.7718H51.954H52.0397H56.2217L67.5545 75.3051H67.84L70.1379 96.7718H72.5359H75.4047H76.7179L80.2719 89.4265H90.4629L91.4906 96.7718H96.7431L93.1034 70.9776H87.0659L74.9006 92.5738L72.3075 70.9776H66.0844L52.0942 96.516L57.5348 70.9776H38.0521ZM88.5931 75.4048L90.1061 86.9068H82.1702L88.5931 75.4048ZM117.81 96.7718H112.9L115.284 85.5687H104.893L102.509 96.7718H97.5994L103.095 70.9776H108.004L105.735 81.5828H116.14L118.395 70.9776H123.305L117.81 96.7718ZM121.336 96.7718L126.831 70.9776H163.056L162.242 74.8069L154.963 74.8353L150.324 96.7718H145.057L149.696 74.8353L142.702 74.8069H130.927L129.443 81.7964H139.577L138.777 85.5402H128.643L127.102 92.7575H139.891L139.034 96.7718H121.336ZM177.101 96.7718H171.848L170.82 89.4265H160.629L157.075 96.7718H152.893L167.423 70.9776H173.461L177.101 96.7718ZM170.464 86.9068L168.951 75.4048L162.528 86.9068H170.464Z" fill="white"/>
</svg>
