<svg width="47" height="65" viewBox="0 0 47 65" fill="none" xmlns="http://www.w3.org/2000/svg">
<path d="M19.6322 0.472748C17.9917 -0.372298 16.8847 0.10304 16.3646 0.459544C14.8308 1.50265 15.0976 3.58886 15.1777 4.27546C16.4047 14.1123 11.5499 21.7706 6.85522 29.1647C3.32088 34.7236 0 39.9787 0 45.5243C0 57.355 9.21594 65 23.5 65C37.7841 65 47 57.355 47 45.5243C46.9867 35.0669 26.0874 3.82653 19.6322 0.472748ZM24.7403 61.0124C27.181 59.0847 29.0483 56.2062 29.0082 52.047C33.8096 51.1492 36.8771 47.8614 36.8771 43.2929C36.8771 38.6055 28.2213 25.6789 25.2472 24.1341C23.9935 23.4739 23.0465 23.9624 22.6997 24.2001C22.1529 24.583 21.5261 25.3488 21.7128 26.8541C22.1529 30.3927 20.3124 33.2843 18.5385 36.0835C17.0315 38.4734 15.6044 40.7181 15.6044 43.2929C15.6044 48.3235 19.3255 51.8093 25.0071 52.2583C24.9271 58.5037 18.2718 59.9957 16.6447 60.273C9.76275 58.6225 4.00114 54.186 4.00114 45.5375C4.00114 41.1406 6.89528 36.5721 10.2429 31.2773C14.8842 23.9624 20.1257 15.6968 19.2854 5.1073C25.5672 10.9566 42.9855 36.5193 42.9855 45.5375C42.9855 56.4571 33.7829 60.6559 24.7403 61.0124ZM26.2341 48.3367C24.6737 48.3367 19.5922 47.967 19.5922 43.2797C19.5922 41.8536 20.7259 40.0711 21.9262 38.183C23.3666 35.9251 25.0471 33.2579 25.5939 30.0098C28.5548 33.8257 32.876 40.9426 32.876 43.2797C32.876 47.9802 27.7945 48.3367 26.2341 48.3367Z" fill="white"/>
</svg>
