<svg width="57" height="59" viewBox="0 0 57 59" fill="none" xmlns="http://www.w3.org/2000/svg">
<path d="M56.9466 28.2221L55.1705 14.035C54.7566 10.7821 52.166 8.23471 48.841 7.82974L38.5054 6.57563C38.1982 6.53644 37.8911 6.45806 37.6107 6.34049L23.9634 0.579423C22.0271 -0.230523 19.8371 -0.191332 17.9543 0.696995L4.14677 7.13737C0.968629 8.62662 -0.6739 12.1146 0.260847 15.4458L3.99982 28.7446C4.16006 29.3325 4.4272 29.8942 4.73433 30.4298C4.74768 30.456 4.761 30.4951 4.78771 30.5213C4.80107 30.5474 4.81439 30.5866 4.8411 30.6258L7.7255 35.1589C8.29971 36.0603 8.37978 37.1837 7.92576 38.1635L6.00285 42.3177C4.62743 45.3093 5.49545 48.8104 8.12609 50.8352L16.7391 57.4715C18.0211 58.4644 19.6235 59 21.2526 59C21.6132 59 21.9737 58.9739 22.3209 58.9216L46.0501 55.4336C48.9878 55.0025 51.3381 52.8862 52.0459 50.0645L56.7863 30.7564C57 29.9073 57.0534 29.0581 56.9466 28.2221ZM38.0247 10.4686L48.3603 11.7227C49.8559 11.9056 51.0176 13.0552 51.2046 14.5053L51.5784 17.4838L35.1403 17.0265C32.6832 16.9612 30.4532 15.5765 29.3449 13.434L25.1518 5.36071L36.0216 9.94605C36.6626 10.2073 37.3303 10.3902 38.0247 10.4686ZM10.6232 47.7522C9.43473 46.8378 9.04744 45.2701 9.6617 43.9246L11.5846 39.7703C12.5861 37.6018 12.4126 35.1066 11.1306 33.0817L10.1425 31.5272C14.4957 31.6709 21.947 32.52 26.5539 36.3477C27.4353 37.0792 27.876 37.9675 27.916 39.1563C28.1163 44.016 21.8535 51.397 19.0359 54.2448L10.6232 47.7522ZM52.9004 29.8289L48.1599 49.137C47.8528 50.4041 46.7846 51.3578 45.4626 51.5537L24.0167 54.7021C27.1949 51.0834 32.1625 44.5386 31.9221 38.9865C31.8286 36.7265 30.8671 34.78 29.1445 33.3561C22.5078 27.8432 11.7048 27.5036 7.83227 27.582L4.1334 14.4269C3.71944 12.9246 4.44053 11.3569 5.88271 10.6907L19.6902 4.2503C19.797 4.19805 19.9172 4.17192 20.024 4.13273L25.7661 15.2107C27.5422 18.6334 31.0942 20.8411 35.0201 20.9456L52.0591 21.429L52.9673 28.6924C53.0207 29.0712 52.9939 29.4501 52.9004 29.8289Z" fill="white"/>
</svg>
