<svg width="53" height="50" viewBox="0 0 53 50" fill="none" xmlns="http://www.w3.org/2000/svg">
<path d="M46.9425 11.6035H7.52561C5.41597 11.6035 3.70112 9.84848 3.70112 7.70202C3.70112 5.55556 5.41597 3.78788 7.52561 3.78788H47.1646C48.1885 3.78788 49.0151 2.94192 49.0151 1.89394C49.0151 0.84596 48.1762 0 47.1522 0H7.52561C3.36802 0 0 3.44697 0 7.70202C0 7.82828 0.0123371 7.94192 0.0123371 8.05556C0.0123371 8.11869 0 8.16919 0 8.23232V42.298C0 46.5404 3.36802 50 7.52561 50H46.9548C50.2858 50 53 47.2222 53 43.8131V17.803C53 14.3813 50.2858 11.6035 46.9425 11.6035ZM49.2989 34.0657H31.5829C29.8063 34.0657 28.3506 32.5884 28.3506 30.7576C28.3506 28.9268 29.794 27.4495 31.5829 27.4495H44.6972C45.7211 27.4495 46.5477 26.6035 46.5477 25.5556C46.5477 24.5076 45.7211 23.6616 44.6972 23.6616H31.5829C27.7584 23.6616 24.6494 26.8434 24.6494 30.7576C24.6494 34.6717 27.7584 37.8535 31.5829 37.8535H49.2989V43.8005C49.2989 45.1263 48.2502 46.1995 46.9548 46.1995H7.52561C5.41597 46.1995 3.70112 44.4444 3.70112 42.2854V14.3182C4.82379 15 6.11918 15.3914 7.52561 15.3914H46.9548C48.2502 15.3914 49.2989 16.4646 49.2989 17.7904V34.0657Z" fill="white"/>
</svg>
