<svg width="62" height="58" viewBox="0 0 62 58" fill="none" xmlns="http://www.w3.org/2000/svg">
<path d="M61.5371 31.8615L57.2751 24.4885C57.2354 24.3694 57.1957 24.2502 57.1296 24.1311L43.7745 0.992777C43.4171 0.383874 42.7686 0 42.0538 0H15.3438C14.629 0 13.9804 0.383874 13.6231 0.992777L0.268027 24.1179C-0.0893425 24.7268 -0.0893425 25.4945 0.268027 26.1034L4.50354 33.4367C4.54325 33.5691 4.5962 33.7015 4.67561 33.8338L18.0306 56.9722C18.388 57.5811 19.0366 57.9649 19.7513 57.9649H46.4614C47.1761 57.9649 47.8247 57.5811 48.1821 56.9722L61.5371 33.8471C61.8945 33.2249 61.8945 32.4704 61.5371 31.8615ZM16.4953 3.97111H40.9156L44.5819 10.3116C44.6216 10.444 44.6746 10.5764 44.754 10.7088L53.0926 25.1636L40.9156 46.2634H16.4953L4.29176 25.1239L16.4953 3.97111ZM45.3231 53.9938H20.9028L18.7322 50.2345H42.0538C42.7686 50.2345 43.4171 49.8507 43.7745 49.2417L55.3824 29.1347L57.5266 32.8543L45.3231 53.9938Z" fill="white"/>
<path d="M28.6987 39.7508C36.7727 39.7508 43.3377 33.1852 43.3377 25.1106C43.3377 17.036 36.7727 10.4705 28.6987 10.4705C20.6248 10.4705 14.0598 17.036 14.0598 25.1106C14.0731 33.1852 20.6381 39.7508 28.6987 39.7508ZM28.6987 14.4548C34.5755 14.4548 39.3669 19.2334 39.3669 25.1238C39.3669 31.0011 34.5887 35.7929 28.6987 35.7929C22.8088 35.7929 18.0306 31.0143 18.0306 25.1238C18.0438 19.2334 22.822 14.4548 28.6987 14.4548Z" fill="white"/>
<path d="M22.2793 26.7256C23.0073 26.7256 23.6029 26.1299 23.6029 25.4019C23.6029 22.2647 26.1442 19.7232 29.2812 19.7232C30.0091 19.7232 30.6048 19.1275 30.6048 18.3995C30.6048 17.6715 30.0091 17.0758 29.2812 17.0758C24.6883 17.0758 20.9557 20.8086 20.9557 25.4019C20.9557 26.1299 21.5381 26.7256 22.2793 26.7256Z" fill="white"/>
</svg>
