<svg width="36" height="21" viewBox="0 0 36 21" xmlns="http://www.w3.org/2000/svg">
<path fill-rule="evenodd" clip-rule="evenodd" d="M5.76399 0.915403H1.97037C0.886471 0.915403 0.669678 1.40889 0.669678 1.95289C0.669678 2.92466 1.95581 7.74408 6.6581 14.1182C9.79297 18.4711 14.2097 20.8308 18.2288 20.8308C20.6402 20.8308 20.9385 20.3067 20.9385 19.404V16.114C20.9385 15.0658 21.167 14.8566 21.9305 14.8566C22.4932 14.8566 23.4578 15.1287 25.7085 17.2275C28.2808 19.7149 28.7048 20.8308 30.1516 20.8308H33.9452C35.0291 20.8308 35.5711 20.3067 35.2584 19.2725C34.9163 18.2417 33.6882 16.7461 32.0587 14.9733C31.1744 13.9627 29.8481 12.8745 29.4462 12.3303C28.8836 11.6307 29.0443 11.3197 29.4462 10.698C29.4462 10.698 34.0682 4.40154 34.5505 2.26399C34.7916 1.48656 34.5505 0.915403 33.4032 0.915403H29.6096C28.6451 0.915403 28.2004 1.40889 27.9591 1.95289C27.9591 1.95289 26.03 6.50031 23.2971 9.45419C22.4128 10.3092 22.0109 10.5813 21.5286 10.5813C21.2875 10.5813 20.9384 10.3092 20.9384 9.53196V2.26399C20.9384 1.33111 20.6585 0.915403 19.8546 0.915403H13.8931C13.2904 0.915403 12.9278 1.3483 12.9278 1.75866C12.9278 2.64291 14.2943 2.84688 14.4352 5.33432V10.7368C14.4352 11.9213 14.2139 12.1361 13.7317 12.1361C12.4456 12.1361 9.31725 7.5683 7.46184 2.34166C7.09827 1.32577 6.73352 0.915403 5.76399 0.915403Z"/>
</svg>
