<svg width="35" height="27" viewBox="0 0 35 27" xmlns="http://www.w3.org/2000/svg">
<path d="M33.9683 4.87089C33.5704 3.3207 32.3941 2.10008 30.9026 1.68506C28.1994 0.932348 17.3551 0.932348 17.3551 0.932348C17.3551 0.932348 6.51082 0.932348 3.80762 1.68506C2.31614 2.10008 1.13989 3.3207 0.741901 4.87089C0.0168457 7.68239 0.0168457 13.5454 0.0168457 13.5454C0.0168457 13.5454 0.0168457 19.4085 0.741901 22.22C1.13989 23.7702 2.31614 24.9908 3.80762 25.4058C6.51082 26.1585 17.3551 26.1585 17.3551 26.1585C17.3551 26.1585 28.1994 26.1585 30.9026 25.4058C32.3941 24.9908 33.5704 23.7702 33.9683 22.22C34.6934 19.4085 34.6934 13.5454 34.6934 13.5454C34.6934 13.5454 34.6934 7.68239 33.9683 4.87089ZM13.8087 18.8694V8.22149L22.8718 13.5454L13.8087 18.8694Z"/>
</svg>
