<svg viewBox="0 0 58 58" xmlns="http://www.w3.org/2000/svg">
<!--<ellipse cx="28.6883" cy="28.5454" rx="28.6748" ry="28.5454" fill="white"/>-->
<path d="M45.9683 19.8709C45.5704 18.3207 44.3941 17.1001 42.9026 16.6851C40.1994 15.9323 29.3551 15.9323 29.3551 15.9323C29.3551 15.9323 18.5108 15.9323 15.8076 16.6851C14.3161 17.1001 13.1399 18.3207 12.7419 19.8709C12.0168 22.6824 12.0168 28.5454 12.0168 28.5454C12.0168 28.5454 12.0168 34.4085 12.7419 37.22C13.1399 38.7702 14.3161 39.9908 15.8076 40.4058C18.5108 41.1585 29.3551 41.1585 29.3551 41.1585C29.3551 41.1585 40.1994 41.1585 42.9026 40.4058C44.3941 39.9908 45.5704 38.7702 45.9683 37.22C46.6934 34.4085 46.6934 28.5454 46.6934 28.5454C46.6934 28.5454 46.6934 22.6824 45.9683 19.8709ZM25.8087 33.8694V23.2215L34.8718 28.5454L25.8087 33.8694Z"/>
</svg>
