<svg width="97" height="97" viewBox="0 0 97 97" fill="none" xmlns="http://www.w3.org/2000/svg">
<path d="M96 48.2811C96 74.3895 74.7378 95.5622 48.5 95.5622C22.2622 95.5622 1 74.3895 1 48.2811C1 22.1727 22.2622 1 48.5 1C74.7378 1 96 22.1727 96 48.2811Z" stroke="white" stroke-width="2"/>
<mask id="path-2-inside-1" fill="white">
<path fill-rule="evenodd" clip-rule="evenodd" d="M69.2399 47.9065L37.2102 29.0914V66.7215L69.2399 47.9065Z"/>
</mask>
<path d="M37.2102 29.0914L38.2232 27.3669L35.2102 25.597V29.0914H37.2102ZM69.2399 47.9065L70.2529 49.6309L73.1886 47.9065L70.2529 46.182L69.2399 47.9065ZM37.2102 66.7215H35.2102V70.2159L38.2232 68.446L37.2102 66.7215ZM36.1972 30.8159L68.2269 49.6309L70.2529 46.182L38.2232 27.3669L36.1972 30.8159ZM39.2102 66.7215V29.0914H35.2102V66.7215H39.2102ZM68.2269 46.182L36.1972 64.997L38.2232 68.446L70.2529 49.6309L68.2269 46.182Z" fill="white" mask="url(#path-2-inside-1)"/>
</svg>
