<svg width="71" height="51" viewBox="0 0 71 51" fill="none" xmlns="http://www.w3.org/2000/svg">
<path d="M67.38 43.7727H64.6716C66.7326 43.7727 68.3973 42.1109 68.3973 40.0535V3.71916C68.3973 1.66175 66.7326 0 64.6716 0H5.77354C3.7125 0 2.04782 1.66175 2.04782 3.71916V40.0535C2.04782 42.1109 3.7125 43.7727 5.77354 43.7727H3.62002C1.62505 43.7727 0 45.3949 0 47.3863C0 49.391 1.62505 51 3.62002 51H67.38C69.3882 51 71 49.3778 71 47.3863C71 45.3949 69.3882 43.7727 67.38 43.7727ZM6.01135 3.95656H64.4205V39.8161H6.01135V3.95656Z" fill="white"/>
</svg>
