<svg width="54" height="64" viewBox="0 0 54 64" fill="none" xmlns="http://www.w3.org/2000/svg">
<path d="M51.0245 31.107H47.689V17.2214C47.689 10.1528 41.9314 4.39469 34.8634 4.39469H21.0319V1.98555C21.0319 0.886881 20.1451 0 19.0465 0H1.98539C0.886807 0 0 0.886881 0 1.98555V24.9121C0 26.0108 0.886807 26.8976 1.98539 26.8976H19.0465C20.1451 26.8976 21.0319 26.0108 21.0319 24.9121V21.7617H30.3368V31.107H28.0999C27.0013 31.107 26.1145 31.9939 26.1145 33.0926V50.1551C26.1145 51.2538 27.0013 52.1407 28.0999 52.1407H30.3368V61.8037C30.3368 62.9024 31.2236 63.7892 32.3222 63.7892H45.7037C46.8022 63.7892 47.689 62.9024 47.689 61.8037V52.1407H51.0245C52.1231 52.1407 53.0099 51.2538 53.0099 50.1551V33.0926C53.0099 31.9939 52.1231 31.107 51.0245 31.107ZM3.98403 22.9265V3.97111H17.0743V5.9699C17.0479 6.10227 17.0346 6.24788 17.0346 6.38025V19.7629C17.0346 19.9085 17.0479 20.0409 17.0743 20.1732V22.9133H3.98403V22.9265ZM32.3354 17.7906H21.0451V8.37904H34.8767C39.7607 8.37904 43.7315 12.3501 43.7315 17.2346V31.107H34.3207V19.7761C34.3207 18.6774 33.4207 17.7906 32.3354 17.7906ZM43.7183 59.8181H34.3075V52.1407H43.7183V59.8181ZM49.0391 48.1695H45.7037H32.3222H30.0853V35.0781H32.3222H45.7037H49.0391V48.1695Z" fill="white"/>
<path d="M35.6708 36.6666C34.5722 36.6666 33.6854 37.5535 33.6854 38.6522V44.5956C33.6854 45.6943 34.5722 46.5812 35.6708 46.5812C36.7694 46.5812 37.6562 45.6943 37.6562 44.5956V38.6522C37.6562 37.5535 36.7694 36.6666 35.6708 36.6666Z" fill="white"/>
<path d="M13.5007 7.57153H7.55772C6.45914 7.57153 5.57233 8.45841 5.57233 9.55709C5.57233 10.6558 6.45914 11.5426 7.55772 11.5426H13.5007C14.5993 11.5426 15.4861 10.6558 15.4861 9.55709C15.4861 8.45841 14.5993 7.57153 13.5007 7.57153Z" fill="white"/>
</svg>
