<svg width="64" height="61" viewBox="0 0 64 61" fill="none" xmlns="http://www.w3.org/2000/svg">
<path d="M55.8687 0H52.0171H40.8592H36.0943C32.0044 0 28.6689 3.33573 28.6689 7.42597V53.557C28.6689 57.6473 32.0044 60.983 36.0943 60.983H55.8555C59.9454 60.983 63.2809 57.6473 63.2809 53.557V7.42597C63.2809 3.32249 59.9586 0 55.8687 0ZM59.3101 53.5438C59.3101 55.4499 57.7615 56.9986 55.8555 56.9986H36.0943C34.1883 56.9986 32.6397 55.4499 32.6397 53.5438V7.42597C32.6397 5.51984 34.1883 3.97111 36.0943 3.97111H38.8738V5.2551C38.8738 6.35377 39.7606 7.24065 40.8592 7.24065H52.0171C53.1157 7.24065 54.0025 6.35377 54.0025 5.2551V3.97111H55.8687C57.7747 3.97111 59.3233 5.51984 59.3233 7.42597V53.5438H59.3101Z" fill="white"/>
<path d="M38.3843 43.9602C37.2857 43.9602 36.3989 44.8471 36.3989 45.9458C36.3989 47.0444 37.2857 47.9313 38.3843 47.9313C40.2638 47.9313 41.7992 49.4668 41.7992 51.3465C41.7992 52.4451 42.686 53.332 43.7846 53.332C44.8832 53.332 45.77 52.4451 45.77 51.3465C45.77 47.2827 42.4477 43.9602 38.3843 43.9602Z" fill="white"/>
<path d="M38.3843 38.6521C37.2857 38.6521 36.3989 39.539 36.3989 40.6377C36.3989 41.7363 37.2857 42.6232 38.3843 42.6232C43.2022 42.6232 47.1068 46.5414 47.1068 51.3464C47.1068 52.4451 47.9936 53.332 49.0922 53.332C50.1908 53.332 51.0776 52.4451 51.0776 51.3464C51.0776 44.344 45.3861 38.6521 38.3843 38.6521Z" fill="white"/>
<path d="M38.3843 33.2515C37.2857 33.2515 36.3989 34.1383 36.3989 35.237C36.3989 36.3357 37.2857 37.2226 38.3843 37.2226C46.1803 37.2226 52.5203 43.5631 52.5203 51.3597C52.5203 52.4584 53.4071 53.3453 54.5057 53.3453C55.6042 53.3453 56.491 52.4584 56.491 51.3597C56.4778 41.3658 48.3642 33.2515 38.3843 33.2515Z" fill="white"/>
<path d="M21.2303 23.5353C20.4494 22.7543 19.192 22.7543 18.4243 23.5353C14.5991 27.3608 14.5991 33.5955 18.4243 37.421C18.8081 37.8048 19.3243 38.0034 19.8273 38.0034C20.3303 38.0034 20.8465 37.8048 21.2303 37.421C22.0112 36.64 22.0112 35.3825 21.2303 34.6147C18.9537 32.3379 18.9537 28.6183 21.2303 26.3416C21.998 25.5738 21.998 24.3163 21.2303 23.5353Z" fill="white"/>
<path d="M11.8065 30.4847C11.8065 26.8577 13.2227 23.4558 15.7773 20.9011C16.5582 20.1201 16.5582 18.8626 15.7773 18.0948C14.9963 17.3271 13.7389 17.3138 12.9712 18.0948C9.66226 21.4041 7.83569 25.812 7.83569 30.4847C7.83569 35.1706 9.66226 39.5653 12.9712 42.8745C13.3551 43.2584 13.8713 43.457 14.3742 43.457C14.8772 43.457 15.3934 43.2584 15.7773 42.8745C16.5582 42.0936 16.5582 40.836 15.7773 40.0683C13.2227 37.5135 11.8065 34.1116 11.8065 30.4847Z" fill="white"/>
<path d="M3.97078 30.4847C3.97078 24.7663 6.1944 19.3921 10.2314 15.3548C11.0123 14.5738 11.0123 13.3163 10.2314 12.5486C9.45044 11.7808 8.19303 11.7676 7.42535 12.5486C2.63395 17.3404 0 23.7074 0 30.4847C0 37.2621 2.63395 43.6291 7.42535 48.4209C7.80919 48.8048 8.32539 49.0033 8.82835 49.0033C9.33132 49.0033 9.84752 48.8048 10.2314 48.4209C11.0123 47.6399 11.0123 46.3824 10.2314 45.6147C6.1944 41.5641 3.97078 36.2031 3.97078 30.4847Z" fill="white"/>
</svg>
