<svg width="62" height="51" viewBox="0 0 62 51" fill="none" xmlns="http://www.w3.org/2000/svg">
<path d="M19.0068 9.50419C19.0068 4.26232 14.7448 0 9.5034 0C4.26196 0 0 4.26232 0 9.50419C0 14.746 4.26196 19.0084 9.5034 19.0084C14.7448 19.0084 19.0068 14.746 19.0068 9.50419ZM3.97078 9.50419C3.97078 6.44643 6.45913 3.97111 9.5034 3.97111C12.5477 3.97111 15.0361 6.45967 15.0361 9.50419C15.0361 12.5487 12.5477 15.0373 9.5034 15.0373C6.45913 15.0373 3.97078 12.5619 3.97078 9.50419Z" fill="white"/>
<path d="M61.5867 18.6376C61.5867 13.3957 57.3248 9.13342 52.0833 9.13342C46.8419 9.13342 42.58 13.3957 42.58 18.6376C42.58 23.1647 45.7698 26.9637 50.0053 27.9035C49.1185 38.1755 40.4754 46.2633 29.9793 46.2633C18.8876 46.2633 9.86076 37.2356 9.86076 26.1562C9.86076 25.0576 8.97395 24.1707 7.87537 24.1707C6.77679 24.1707 5.88998 25.0576 5.88998 26.1562C5.88998 39.433 16.6905 50.2344 29.9793 50.2344C42.6461 50.2344 53.0496 40.386 53.9761 27.9432C58.3174 27.0696 61.5867 23.2309 61.5867 18.6376ZM52.0833 24.1707C49.0258 24.1707 46.5507 21.6821 46.5507 18.6376C46.5507 15.5931 49.0391 13.1045 52.0833 13.1045C55.1276 13.1045 57.6159 15.5931 57.6159 18.6376C57.6159 21.6821 55.1276 24.1707 52.0833 24.1707Z" fill="white"/>
</svg>
