<svg width="51" height="50" viewBox="0 0 51 50" fill="none" xmlns="http://www.w3.org/2000/svg">
<path d="M49.0053 23.019H32.7376L31.2685 22.6228C29.6646 22.187 28.3843 20.9324 27.9395 19.3476L27.5351 17.9081V1.98098C27.5351 0.884839 26.6321 0 25.5135 0C24.3948 0 23.4918 0.884839 23.4918 1.98098V17.9213L23.0875 19.3608C22.6427 20.9324 21.3623 22.187 19.7585 22.6228L18.2894 23.019H2.02167C0.903013 23.019 0 23.9039 0 25C0 26.0961 0.903013 26.981 2.02167 26.981H18.2759L19.745 27.3772C21.3488 27.813 22.6292 29.0676 23.074 30.6392L23.4783 32.0787V48.019C23.4783 49.1152 24.3813 50 25.5 50C26.6187 50 27.5217 49.1152 27.5217 48.019V32.0919L27.926 30.6524C28.3708 29.0808 29.6512 27.8262 31.255 27.3904L32.7241 26.9942H48.9783C50.097 26.9942 51 26.1093 51 25.0132C51 23.9171 50.1239 23.019 49.0053 23.019Z" fill="white"/>
</svg>
