<svg width="62" height="63" viewBox="0 0 62 63" fill="none" xmlns="http://www.w3.org/2000/svg">
<path d="M39.3273 25.8387C39.3273 20.5968 35.0653 16.3345 29.8239 16.3345C24.5825 16.3345 20.3205 20.5968 20.3205 25.8387C20.3205 31.0805 24.5825 35.3428 29.8239 35.3428C35.0653 35.3428 39.3273 31.0805 39.3273 25.8387ZM24.2913 25.8387C24.2913 22.7809 26.7796 20.3056 29.8239 20.3056C32.8681 20.3056 35.3565 22.7941 35.3565 25.8387C35.3565 28.8832 32.8681 31.3717 29.8239 31.3717C26.7796 31.3717 24.2913 28.8832 24.2913 25.8387Z" fill="white"/>
<path d="M60.7429 29.2274L32.0739 0.555955C31.3327 -0.185318 30.0091 -0.185318 29.2679 0.555955L0.585689 29.2274C-0.19523 30.0083 -0.19523 31.2659 0.585689 32.0336C1.36661 32.8146 2.62401 32.8146 3.3917 32.0336L30.6577 4.76533L57.9236 32.0336C58.3075 32.4175 58.8237 32.616 59.3267 32.616C59.8296 32.616 60.3458 32.4175 60.7297 32.0336C61.5238 31.2659 61.5238 30.0083 60.7429 29.2274Z" fill="white"/>
<path d="M49.347 28.5258C48.9896 28.5655 40.6112 29.651 31.8622 41.4716C25.8796 49.5595 17.0116 48.0107 13.7555 47.0841V30.4981C13.7555 29.3995 12.8687 28.5126 11.7701 28.5126C10.6716 28.5126 9.78475 29.3995 9.78475 30.4981V48.4608C9.78475 48.4873 9.78475 48.527 9.78475 48.5534V60.9036C9.78475 62.0023 10.6716 62.8891 11.7701 62.8891H49.5719C50.6705 62.8891 51.5573 62.0023 51.5573 60.9036V30.4981C51.5573 29.9289 51.3191 29.3995 50.8955 29.0156C50.472 28.6317 49.9029 28.4729 49.347 28.5258ZM47.5866 58.918H13.7555V51.1347C18.4808 52.1936 28.2886 52.9614 35.0522 43.8278C40.095 37.0107 44.8997 34.2442 47.5734 33.1455V58.918H47.5866Z" fill="white"/>
</svg>
