<?xml version="1.0" encoding="utf-8"?><svg xmlns="http://www.w3.org/2000/svg" xmlns:xlink="http://www.w3.org/1999/xlink"><symbol fill="none" viewBox="0 0 360 82" id="braim" xmlns="http://www.w3.org/2000/svg"><g clip-path="url(#aclip0)" fill="#fff"><path d="M175.125 0l42.923 81.578h16.396L191.521 0h-16.396zm82.642 14.733h-14.636v66.642h14.636V14.733zM272.403.211h-14.636v14.522h14.636V.211zm-99.277 66.528H158.49v14.636h14.636V66.739zM53.247 37.132a23.107 23.107 0 004.497-13.73c0-12.814-10.385-23.2-23.2-23.2H0v81.376h38.285c13.66 0 24.74-11.081 24.74-24.74 0-8.045-3.838-15.182-9.778-19.706zM14.522 14.733h20.022c4.788 0 8.678 3.89 8.678 8.678s-3.89 8.678-8.678 8.678H14.522V14.733zm23.763 52.323H14.522V46.62h23.763c5.633 0 10.218 4.585 10.218 10.218 0 5.632-4.577 10.218-10.218 10.218zm306.789 14.319h14.636V.211h-16.229l-22.522 46.972L298.437.21h-16.229v81.164h14.636V30.733l16 33.374 4.119 8.599h7.991l4.119-8.599 16.001-33.373v50.641zm-217.159 0h17.515l-19.424-29.536c8.572-4.647 14.398-13.721 14.398-24.168 0-15.165-12.295-27.469-27.468-27.469H80.918v81.164h14.636V55.14h15.102l17.259 26.236zM95.554 14.733h17.391c7.137 0 12.946 5.809 12.946 12.947 0 7.137-5.809 12.946-12.946 12.946H95.554V14.733z"/><path d="M186.416 52.79h-13.29v14.635h20.991l-7.701-14.636z"/></g><defs><clipPath id="aclip0"><path fill="#fff" d="M0 0h359.71v81.578H0z"/></clipPath></defs></symbol><symbol fill="none" viewBox="0 0 67 67" id="checkbox" xmlns="http://www.w3.org/2000/svg"><circle cx="33.5" cy="33.5" r="31.5" stroke="#fff" stroke-width="4"/><path d="M19.5 32.5l12 10.5 17-17" stroke="#fff" stroke-width="4"/></symbol><symbol fill="none" viewBox="0 0 27 27" id="count" xmlns="http://www.w3.org/2000/svg"><circle cx="13.5" cy="13.5" r="7.5" transform="rotate(-90 13.5 13.5)" fill="#fff"/><circle cx="13.5" cy="13.5" r="13" transform="rotate(-90 13.5 13.5)" stroke="#fff"/></symbol><symbol viewBox="0 0 17 32" id="facebook" xmlns="http://www.w3.org/2000/svg"><path d="M15.54 18.11l.858-5.565h-5.364v-3.61c0-1.523.75-3.007 3.152-3.007h2.439V1.19s-2.213-.376-4.33-.376c-4.417 0-7.304 2.665-7.304 7.49v4.241H.081v5.565h4.91v13.453a19.568 19.568 0 006.043 0V18.11h4.507z"/></symbol><symbol viewBox="0 0 33 33" id="insta" xmlns="http://www.w3.org/2000/svg"><path d="M23.346.807H9.003C4.133.807.17 4.752.17 9.601v14.278c0 4.848 3.962 8.793 8.833 8.793h14.343c4.87 0 8.833-3.945 8.833-8.793V9.6c0-4.849-3.963-8.794-8.834-8.794zm5.993 23.072c0 3.29-2.688 5.966-5.993 5.966H9.003c-3.305 0-5.993-2.676-5.993-5.966V9.6c0-3.29 2.688-5.966 5.993-5.966h14.343c3.304 0 5.993 2.676 5.993 5.966v14.278z"/><path d="M16.174 8.53c-4.548 0-8.248 3.682-8.248 8.21 0 4.527 3.7 8.21 8.248 8.21 4.548 0 8.248-3.683 8.248-8.21 0-4.528-3.7-8.21-8.248-8.21zm0 13.593c-2.982 0-5.408-2.415-5.408-5.383 0-2.969 2.426-5.384 5.408-5.384s5.408 2.415 5.408 5.384c0 2.968-2.426 5.383-5.408 5.383zm8.594-15.991a2.078 2.078 0 00-2.083 2.073c0 .545.224 1.08.612 1.466.386.385.924.607 1.471.607.55 0 1.085-.222 1.473-.607.388-.386.61-.921.61-1.466a2.077 2.077 0 00-2.083-2.073z"/></symbol><symbol viewBox="0 0 99 53" fill="none" id="logo" xmlns="http://www.w3.org/2000/svg"><g clip-path="url(#fclip0)"><path d="M2.487 48.596H0l2.784-13.018H5.27L2.487 48.596zm7.845 0H7.664l2.357-11.007H6.348l.434-2.011h9.999l-.427 2.011H12.69l-2.357 11.007z" fill="#EF7D00"/><path d="M16.491 48.84l2.784-13.018h9.869L26.36 48.84h-2.487l2.379-11.107H21.35L18.979 48.84H16.49z" fill="#00A7E7"/><path d="M28.479 48.84h-2.162l7.158-13.018h3.152l1.569 13.018h-2.668l-1.164-10.834h-.145L28.48 48.84z" fill="#00A7E7"/><path d="M49.005 48.84h-2.66l-.521-3.707H40.66l-1.8 3.707h-2.118l7.36-13.018h3.058l1.844 13.018zm-3.362-4.979l-.767-5.805-3.253 5.805h4.02zm14.033 4.979H57.19l1.207-5.654h-5.263l-1.207 5.654h-2.488l2.784-13.018h2.487l-1.15 5.352h5.271l1.142-5.352h2.488L59.676 48.84zm4.57-13.018L61.462 48.84h8.965l.434-2.026h-6.478l.78-3.642h5.134l.405-1.89h-5.133l.751-3.527h5.965l3.543.014-2.35 11.071h2.668l2.35-11.071 3.687-.014.412-1.933h-18.35zM89.71 48.84h-2.661l-.52-3.707h-5.163l-1.8 3.707h-2.118l7.36-13.018h3.058L89.71 48.84zm-3.362-4.979l-.767-5.805-3.253 5.805h4.02z" fill="#00A7E7"/><path d="M31.653 20.548c3.99-5.805 10.18-10.39 17.612-12.954C60.602-5.23 69.705.905 73.695 6.301c10.809-2.536 17.511 5.058 20.07 10.482-3.91-4.656-8.242-6.833-12.688-7.307C91.799 14.756 99 24.564 99 35.8c0 6.38-2.328 12.3-6.297 17.193 3.08-4.483 4.851-9.7 4.851-15.253 0-12.587-9.052-23.393-21.965-28.034-17.496 3.097-34.964 27.308-34.964 27.308C51.81 20.117 61.274 11.545 69.017 7.954a42.718 42.718 0 00-7.562-.676c-3.391 0-6.673.395-9.782 1.135-8.684 7.565-14.822 20.038-14.822 20.038 3.716-8.37 7.317-14.477 10.744-18.838-6.493 2.277-12.016 6.1-15.942 10.935zM62.9 5.338c3.456 0 6.789.417 9.955 1.178.145-.043.297-.079.442-.115-6.5-5.46-13.029-4.16-18.733-.244a42.76 42.76 0 018.336-.819z" fill="#00A7E7"/></g><defs><clipPath id="fclip0"><path fill="#fff" d="M0 0h99v53H0z"/></clipPath></defs></symbol><symbol fill="none" viewBox="0 0 97 97" id="play" xmlns="http://www.w3.org/2000/svg"><path d="M96 48.281c0 26.108-21.262 47.281-47.5 47.281S1 74.39 1 48.282C1 22.171 22.262 1 48.5 1S96 22.173 96 48.281z" stroke="#fff" stroke-width="2"/><mask id="ga" fill="#fff"><path fill-rule="evenodd" clip-rule="evenodd" d="M69.24 47.907L37.21 29.09v37.63l32.03-18.815z"/></mask><path d="M37.21 29.091l1.013-1.724-3.013-1.77v3.494h2zm32.03 18.816l1.013 1.724 2.936-1.724-2.936-1.725-1.013 1.724zM37.21 66.722h-2v3.494l3.013-1.77-1.013-1.724zm-1.013-35.906l32.03 18.815 2.026-3.449-32.03-18.815-2.026 3.449zm3.013 35.906v-37.63h-4v37.63h4zm29.017-20.54l-32.03 18.815 2.026 3.449 32.03-18.815-2.026-3.449z" fill="#fff" mask="url(#ga)"/></symbol><symbol fill="none" viewBox="0 0 71 51" id="promo-1" xmlns="http://www.w3.org/2000/svg"><path d="M67.38 43.773h-2.708a3.718 3.718 0 003.725-3.72V3.72A3.718 3.718 0 0064.672 0H5.774a3.718 3.718 0 00-3.726 3.72v36.334a3.718 3.718 0 003.726 3.719H3.62A3.622 3.622 0 000 47.386 3.614 3.614 0 003.62 51h63.76a3.614 3.614 0 100-7.227zM6.011 3.957h58.41v35.86H6.01V3.956z" fill="#fff"/></symbol><symbol fill="none" viewBox="0 0 57 59" id="promo-10" xmlns="http://www.w3.org/2000/svg"><path d="M56.947 28.222L55.17 14.035c-.413-3.253-3.004-5.8-6.329-6.205L38.505 6.576a3.468 3.468 0 01-.894-.236L23.963.58a7.406 7.406 0 00-6.009.117L4.147 7.137C.969 8.627-.673 12.115.26 15.446L4 28.745c.16.587.427 1.15.734 1.685.014.026.027.065.054.091.013.026.026.066.053.105l2.885 4.533c.574.901.654 2.025.2 3.005l-1.923 4.154c-1.376 2.991-.508 6.492 2.123 8.517l8.613 6.636a7.394 7.394 0 005.582 1.45l23.73-3.487c2.937-.431 5.287-2.548 5.995-5.37l4.74-19.308a6.784 6.784 0 00.16-2.534zM38.025 10.47l10.335 1.254c1.496.183 2.658 1.332 2.845 2.782l.373 2.979-16.438-.458c-2.457-.065-4.687-1.45-5.795-3.592l-4.193-8.073 10.87 4.585a7.538 7.538 0 002.003.523zM10.623 47.752a3.149 3.149 0 01-.961-3.827l1.923-4.155a6.977 6.977 0 00-.454-6.688l-.989-1.555c4.354.144 11.805.993 16.412 4.82.881.732 1.322 1.62 1.362 2.81.2 4.859-6.063 12.24-8.88 15.088l-8.413-6.493zM52.9 29.83l-4.74 19.308c-.307 1.267-1.375 2.22-2.697 2.417l-21.446 3.148c3.178-3.619 8.146-10.163 7.905-15.715-.093-2.26-1.055-4.207-2.777-5.63-6.637-5.514-17.44-5.853-21.313-5.775L4.133 14.427a3.169 3.169 0 011.75-3.736L19.69 4.25c.107-.053.227-.08.334-.118l5.742 11.078c1.776 3.422 5.328 5.63 9.254 5.735l17.04.483.907 7.263c.054.38.027.758-.067 1.137z" fill="#fff"/></symbol><symbol fill="none" viewBox="0 0 51 50" id="promo-2" xmlns="http://www.w3.org/2000/svg"><path d="M49.005 23.019H32.738l-1.47-.396c-1.603-.436-2.884-1.69-3.329-3.275l-.404-1.44V1.981C27.535.885 26.632 0 25.514 0c-1.12 0-2.022.885-2.022 1.981v15.94l-.405 1.44c-.444 1.571-1.725 2.826-3.328 3.262l-1.47.396H2.022C.903 23.019 0 23.904 0 25s.903 1.981 2.022 1.981h16.254l1.469.396c1.604.436 2.884 1.69 3.329 3.262l.404 1.44v15.94c0 1.096.903 1.981 2.022 1.981 1.119 0 2.022-.885 2.022-1.981V32.092l.404-1.44c.445-1.571 1.725-2.826 3.329-3.262l1.47-.396h16.253c1.119 0 2.022-.885 2.022-1.98a1.987 1.987 0 00-1.995-1.995z" fill="#fff"/></symbol><symbol fill="none" viewBox="0 0 53 50" id="promo-3" xmlns="http://www.w3.org/2000/svg"><path d="M46.943 11.604H7.526c-2.11 0-3.825-1.756-3.825-3.902s1.715-3.914 3.825-3.914h39.639c1.023 0 1.85-.846 1.85-1.894S48.176 0 47.152 0H7.526C3.368 0 0 3.447 0 7.702c0 .126.012.24.012.354 0 .063-.012.113-.012.176v34.066C0 46.54 3.368 50 7.526 50h39.429C50.285 50 53 47.222 53 43.813v-26.01c0-3.422-2.714-6.2-6.057-6.2zm2.356 22.462H31.583c-1.777 0-3.232-1.478-3.232-3.308 0-1.831 1.443-3.308 3.232-3.308h13.114c1.024 0 1.85-.846 1.85-1.894s-.826-1.894-1.85-1.894H31.583c-3.825 0-6.934 3.181-6.934 7.096 0 3.914 3.11 7.095 6.934 7.095h17.716V43.8c0 1.326-1.049 2.4-2.344 2.4H7.525c-2.109 0-3.824-1.756-3.824-3.915V14.318a7.31 7.31 0 003.825 1.073h39.429c1.295 0 2.344 1.074 2.344 2.4v16.275z" fill="#fff"/></symbol><symbol fill="none" viewBox="0 0 64 61" id="promo-4" xmlns="http://www.w3.org/2000/svg"><path d="M55.869 0H36.094c-4.09 0-7.425 3.336-7.425 7.426v46.131c0 4.09 3.335 7.426 7.425 7.426h19.761c4.09 0 7.426-3.336 7.426-7.426V7.426C63.28 3.322 59.959 0 55.869 0zm3.441 53.544a3.457 3.457 0 01-3.455 3.455h-19.76a3.457 3.457 0 01-3.455-3.455V7.426a3.457 3.457 0 013.454-3.455h2.78v1.284c0 1.099.887 1.986 1.985 1.986h11.158a1.983 1.983 0 001.985-1.986V3.971h1.867a3.457 3.457 0 013.454 3.455v46.118h-.013z" fill="#fff"/><path d="M38.384 43.96a1.983 1.983 0 00-1.985 1.986c0 1.098.887 1.985 1.985 1.985a3.423 3.423 0 013.415 3.416c0 1.098.887 1.985 1.986 1.985a1.983 1.983 0 001.985-1.986c0-4.063-3.322-7.386-7.386-7.386z" fill="#fff"/><path d="M38.384 38.652a1.983 1.983 0 00-1.985 1.986c0 1.098.887 1.985 1.985 1.985 4.818 0 8.723 3.918 8.723 8.723 0 1.1.887 1.986 1.985 1.986a1.983 1.983 0 001.986-1.986c0-7.002-5.692-12.694-12.694-12.694z" fill="#fff"/><path d="M38.384 33.252a1.983 1.983 0 00-1.985 1.985c0 1.099.887 1.986 1.985 1.986 7.796 0 14.136 6.34 14.136 14.137 0 1.098.887 1.985 1.986 1.985a1.983 1.983 0 001.985-1.985c-.013-9.994-8.127-18.108-18.107-18.108zM21.23 23.535a1.973 1.973 0 00-2.806 0c-3.825 3.826-3.825 10.06 0 13.886.384.384.9.582 1.403.582s1.02-.198 1.403-.582a1.973 1.973 0 000-2.806c-2.276-2.277-2.276-5.997 0-8.273a1.998 1.998 0 000-2.807z" fill="#fff"/><path d="M11.806 30.485a13.47 13.47 0 013.971-9.584 1.973 1.973 0 000-2.806c-.78-.768-2.038-.781-2.806 0a17.425 17.425 0 00-5.135 12.39c0 4.686 1.826 9.08 5.135 12.39.384.383.9.582 1.403.582s1.02-.199 1.403-.583a1.973 1.973 0 000-2.806 13.467 13.467 0 01-3.97-9.583z" fill="#fff"/><path d="M3.97 30.485c0-5.719 2.224-11.093 6.261-15.13a1.973 1.973 0 000-2.806c-.78-.768-2.038-.781-2.806 0C2.634 17.34 0 23.707 0 30.485c0 6.777 2.634 13.144 7.425 17.936.384.384.9.582 1.403.582s1.02-.198 1.403-.582a1.973 1.973 0 000-2.806c-4.037-4.05-6.26-9.412-6.26-15.13z" fill="#fff"/></symbol><symbol fill="none" viewBox="0 0 54 64" id="promo-5" xmlns="http://www.w3.org/2000/svg"><path d="M51.025 31.107h-3.336V17.221c0-7.068-5.758-12.826-12.826-12.826H21.032v-2.41A1.983 1.983 0 0019.047 0H1.985A1.983 1.983 0 000 1.986v22.926c0 1.099.887 1.986 1.985 1.986h17.062a1.983 1.983 0 001.985-1.986v-3.15h9.305v9.345H28.1a1.983 1.983 0 00-1.986 1.986v17.062c0 1.099.887 1.986 1.986 1.986h2.237v9.663c0 1.098.887 1.985 1.985 1.985h13.382a1.983 1.983 0 001.985-1.985V52.14h3.336a1.983 1.983 0 001.985-1.986V33.093a1.983 1.983 0 00-1.985-1.986zm-47.041-8.18V3.97h13.09v2a2.16 2.16 0 00-.04.41v13.383c0 .145.014.278.04.41v2.74H3.984v.014zm28.351-5.136h-11.29V8.379h13.832c4.884 0 8.854 3.971 8.854 8.856v13.872h-9.41v-11.33c0-1.1-.9-1.986-1.986-1.986zm11.383 42.027h-9.41v-7.677h9.41v7.677zM49.04 48.17H30.085V35.078H49.04V48.17z" fill="#fff"/><path d="M35.67 36.667a1.983 1.983 0 00-1.985 1.985v5.944c0 1.098.887 1.985 1.986 1.985a1.983 1.983 0 001.985-1.985v-5.944a1.983 1.983 0 00-1.985-1.985zM13.5 7.572H7.559a1.983 1.983 0 00-1.986 1.985c0 1.099.887 1.986 1.986 1.986H13.5a1.983 1.983 0 001.985-1.986A1.983 1.983 0 0013.5 7.572z" fill="#fff"/></symbol><symbol fill="none" viewBox="0 0 62 58" id="promo-6" xmlns="http://www.w3.org/2000/svg"><path d="M61.537 31.861l-4.262-7.373a2.14 2.14 0 00-.145-.357L43.775.993A1.996 1.996 0 0042.053 0h-26.71c-.715 0-1.364.384-1.72.993L.267 24.118a1.973 1.973 0 000 1.985l4.236 7.334c.04.132.092.265.172.397L18.03 56.972a1.996 1.996 0 001.72.993h26.71c.715 0 1.364-.384 1.721-.993l13.355-23.125a1.973 1.973 0 000-1.986zM16.495 3.971h24.42l3.667 6.34c.04.133.093.265.172.398l8.339 14.455-12.177 21.1h-24.42L4.291 25.123 16.495 3.97zm28.828 50.023h-24.42l-2.17-3.76h23.32c.716 0 1.364-.383 1.722-.992l11.607-20.107 2.145 3.72-12.204 21.139z" fill="#fff"/><path d="M28.699 39.75c8.074 0 14.639-6.565 14.639-14.64 0-8.074-6.565-14.64-14.64-14.64-8.073 0-14.638 6.566-14.638 14.64.013 8.075 6.578 14.64 14.639 14.64zm0-25.295c5.876 0 10.668 4.778 10.668 10.669 0 5.877-4.778 10.669-10.668 10.669S18.03 31.014 18.03 25.123c.013-5.89 4.791-10.668 10.668-10.668z" fill="#fff"/><path d="M22.28 26.726c.727 0 1.323-.596 1.323-1.324a5.677 5.677 0 015.678-5.679c.728 0 1.324-.595 1.324-1.323s-.596-1.324-1.324-1.324c-4.593 0-8.325 3.733-8.325 8.326a1.32 1.32 0 001.323 1.324z" fill="#fff"/></symbol><symbol fill="none" viewBox="0 0 62 51" id="promo-7" xmlns="http://www.w3.org/2000/svg"><path d="M19.007 9.504C19.007 4.262 14.745 0 9.503 0 4.262 0 0 4.262 0 9.504s4.262 9.504 9.503 9.504c5.242 0 9.504-4.262 9.504-9.504zm-15.036 0a5.539 5.539 0 015.532-5.533c3.045 0 5.533 2.489 5.533 5.533 0 3.045-2.488 5.533-5.533 5.533a5.539 5.539 0 01-5.532-5.533zm57.616 9.134c0-5.242-4.262-9.505-9.504-9.505-5.241 0-9.503 4.263-9.503 9.505 0 4.527 3.19 8.326 7.425 9.265-.887 10.273-9.53 18.36-20.026 18.36-11.091 0-20.118-9.027-20.118-20.107a1.983 1.983 0 00-1.986-1.985 1.983 1.983 0 00-1.985 1.985c0 13.277 10.8 24.078 24.09 24.078 12.666 0 23.07-9.848 23.996-22.29 4.341-.874 7.61-4.713 7.61-9.306zm-9.504 5.533a5.539 5.539 0 01-5.532-5.533c0-3.045 2.488-5.534 5.532-5.534 3.045 0 5.533 2.49 5.533 5.534 0 3.044-2.488 5.533-5.533 5.533z" fill="#fff"/></symbol><symbol fill="none" viewBox="0 0 62 63" id="promo-8" xmlns="http://www.w3.org/2000/svg"><path d="M39.327 25.839c0-5.242-4.262-9.505-9.503-9.505-5.242 0-9.504 4.263-9.504 9.505 0 5.242 4.262 9.504 9.504 9.504 5.241 0 9.503-4.263 9.503-9.504zm-15.036 0a5.539 5.539 0 015.533-5.533c3.044 0 5.532 2.488 5.532 5.533 0 3.044-2.488 5.533-5.532 5.533s-5.533-2.489-5.533-5.533z" fill="#fff"/><path d="M60.743 29.227L32.073.556c-.74-.741-2.064-.741-2.805 0L.586 29.227a1.974 1.974 0 000 2.807c.78.78 2.038.78 2.806 0L30.658 4.765l27.266 27.269c.383.383.9.582 1.403.582a2 2 0 001.403-.582 1.962 1.962 0 00.013-2.807z" fill="#fff"/><path d="M49.347 28.526c-.357.04-8.736 1.125-17.485 12.946-5.982 8.087-14.85 6.539-18.107 5.612V30.498a1.983 1.983 0 00-1.985-1.985 1.983 1.983 0 00-1.985 1.985v30.405c0 1.1.887 1.986 1.985 1.986h37.802a1.983 1.983 0 001.985-1.985V30.498c0-.57-.238-1.099-.662-1.482-.423-.384-.992-.543-1.548-.49zm-1.76 30.392H13.755v-7.783c4.726 1.059 14.534 1.826 21.297-7.307 5.043-6.817 9.848-9.584 12.521-10.683v25.773h.014z" fill="#fff"/></symbol><symbol fill="none" viewBox="0 0 47 65" id="promo-9" xmlns="http://www.w3.org/2000/svg"><path d="M19.632.473c-1.64-.845-2.747-.37-3.267-.013-1.534 1.043-1.267 3.129-1.187 3.815 1.227 9.837-3.628 17.496-8.323 24.89C3.321 34.724 0 39.979 0 45.525 0 57.354 9.216 65 23.5 65S47 57.355 47 45.524C46.987 35.067 26.087 3.827 19.632.473zm5.108 60.54c2.441-1.928 4.308-4.807 4.268-8.966 4.802-.898 7.87-4.186 7.87-8.754 0-4.688-8.657-17.614-11.63-19.159-1.255-.66-2.201-.172-2.548.066-.547.383-1.174 1.149-.987 2.654.44 3.539-1.4 6.43-3.175 9.23-1.506 2.39-2.934 4.634-2.934 7.209 0 5.03 3.722 8.516 9.403 8.965-.08 6.246-6.735 7.738-8.362 8.015C9.763 58.623 4 54.186 4 45.537c0-4.396 2.894-8.965 6.242-14.26 4.641-7.315 9.883-15.58 9.042-26.17 6.282 5.85 23.7 31.412 23.7 40.43 0 10.92-9.202 15.119-18.245 15.475zm1.494-12.676c-1.56 0-6.642-.37-6.642-5.057 0-1.426 1.134-3.209 2.334-5.097 1.44-2.258 3.121-4.925 3.668-8.173 2.96 3.816 7.282 10.933 7.282 13.27 0 4.7-5.081 5.057-6.642 5.057z" fill="#fff"/></symbol><symbol fill="none" viewBox="0 0 30 30" id="qwe" xmlns="http://www.w3.org/2000/svg"><circle cx="15" cy="15" r="14" stroke="#5A92FF" stroke-width="2"/><rect x="12.973" y="4.865" width="4.054" height="12.973" rx="2.027" fill="#5A92FF"/><circle cx="15" cy="22.297" r="2.027" fill="#5A92FF"/></symbol><symbol fill="none" viewBox="0 0 246 27" id="step-bg" xmlns="http://www.w3.org/2000/svg"><circle cx="232.5" cy="13.5" r="7.5" transform="rotate(-90 232.5 13.5)" fill="#fff"/><circle cx="232.5" cy="13.5" r="13" transform="rotate(-90 232.5 13.5)" stroke="#fff"/><path stroke="url(#spaint0_linear)" d="M0 13.5h219"/><defs><linearGradient id="spaint0_linear" x1="0" y1="14" x2="219" y2="14" gradientUnits="userSpaceOnUse"><stop stop-color="#fff"/><stop offset="1" stop-color="#fff"/></linearGradient></defs></symbol><symbol viewBox="0 0 36 21" id="vk" xmlns="http://www.w3.org/2000/svg"><path fill-rule="evenodd" clip-rule="evenodd" d="M5.764.915H1.97C.886.915.67 1.41.67 1.953c0 .972 1.286 5.791 5.988 12.165 3.135 4.353 7.552 6.713 11.57 6.713 2.412 0 2.71-.524 2.71-1.427v-3.29c0-1.048.229-1.257.992-1.257.563 0 1.528.272 3.779 2.37 2.572 2.488 2.996 3.604 4.443 3.604h3.793c1.084 0 1.626-.524 1.313-1.558-.342-1.031-1.57-2.527-3.2-4.3-.884-1.01-2.21-2.099-2.612-2.643-.562-.7-.402-1.01 0-1.632 0 0 4.622-6.296 5.104-8.434.242-.777 0-1.349-1.147-1.349H29.61c-.965 0-1.41.494-1.65 1.038 0 0-1.93 4.547-4.663 7.501-.884.855-1.286 1.127-1.768 1.127-.241 0-.59-.272-.59-1.049V2.264c0-.933-.28-1.349-1.084-1.349h-5.962c-.603 0-.965.433-.965.844 0 .884 1.366 1.088 1.507 3.575v5.403c0 1.184-.221 1.4-.703 1.4-1.286 0-4.415-4.569-6.27-9.795C7.098 1.326 6.734.915 5.764.915z"/></symbol><symbol viewBox="0 0 58 58" id="youtube" xmlns="http://www.w3.org/2000/svg"><path d="M45.968 19.87c-.398-1.55-1.574-2.77-3.065-3.185-2.704-.753-13.548-.753-13.548-.753s-10.844 0-13.547.753c-1.492.415-2.668 1.636-3.066 3.186-.725 2.811-.725 8.674-.725 8.674s0 5.863.725 8.675c.398 1.55 1.574 2.77 3.066 3.186 2.703.752 13.547.752 13.547.752s10.844 0 13.548-.752c1.491-.415 2.667-1.636 3.065-3.186.725-2.812.725-8.675.725-8.675s0-5.863-.725-8.674zm-20.16 14V23.221l9.064 5.323-9.063 5.324z"/></symbol></svg>