<?xml version="1.0" encoding="utf-8"?><svg xmlns="http://www.w3.org/2000/svg" xmlns:xlink="http://www.w3.org/1999/xlink"><symbol fill="none" viewBox="0 0 99 53" id="logo" xmlns="http://www.w3.org/2000/svg"><g clip-path="url(#aclip0)"><path d="M2.487 48.596H0l2.784-13.018H5.27L2.487 48.596zm7.845 0H7.664l2.357-11.007H6.348l.434-2.011h9.999l-.427 2.011H12.69l-2.357 11.007z" fill="#EF7D00"/><path d="M16.491 48.84l2.784-13.018h9.869L26.36 48.84h-2.487l2.379-11.107H21.35L18.979 48.84H16.49z" fill="#00A7E7"/><path d="M28.479 48.84h-2.162l7.158-13.018h3.152l1.569 13.018h-2.668l-1.164-10.834h-.145L28.48 48.84z" fill="#00A7E7"/><path d="M49.005 48.84h-2.66l-.521-3.707H40.66l-1.8 3.707h-2.118l7.36-13.018h3.058l1.844 13.018zm-3.362-4.979l-.767-5.805-3.253 5.805h4.02zm14.033 4.979H57.19l1.207-5.654h-5.263l-1.207 5.654h-2.488l2.784-13.018h2.487l-1.15 5.352h5.271l1.142-5.352h2.488L59.676 48.84zm4.57-13.018L61.462 48.84h8.965l.434-2.026h-6.478l.78-3.642h5.134l.405-1.89h-5.133l.751-3.527h5.965l3.543.014-2.35 11.071h2.668l2.35-11.071 3.687-.014.412-1.933h-18.35zM89.71 48.84h-2.661l-.52-3.707h-5.163l-1.8 3.707h-2.118l7.36-13.018h3.058L89.71 48.84zm-3.362-4.979l-.767-5.805-3.253 5.805h4.02z" fill="#00A7E7"/><path d="M31.653 20.548c3.99-5.805 10.18-10.39 17.612-12.954C60.602-5.23 69.705.905 73.695 6.301c10.809-2.536 17.511 5.058 20.07 10.482-3.91-4.656-8.242-6.833-12.688-7.307C91.799 14.756 99 24.564 99 35.8c0 6.38-2.328 12.3-6.297 17.193 3.08-4.483 4.851-9.7 4.851-15.253 0-12.587-9.052-23.393-21.965-28.034-17.496 3.097-34.964 27.308-34.964 27.308C51.81 20.117 61.274 11.545 69.017 7.954a42.718 42.718 0 00-7.562-.676c-3.391 0-6.673.395-9.782 1.135-8.684 7.565-14.822 20.038-14.822 20.038 3.716-8.37 7.317-14.477 10.744-18.838-6.493 2.277-12.016 6.1-15.942 10.935zM62.9 5.338c3.456 0 6.789.417 9.955 1.178.145-.043.297-.079.442-.115-6.5-5.46-13.029-4.16-18.733-.244a42.76 42.76 0 018.336-.819z" fill="#00A7E7"/></g><defs><clipPath id="aclip0"><path fill="#fff" d="M0 0h99v53H0z"/></clipPath></defs></symbol><symbol fill="none" viewBox="0 0 30 30" id="qwe" xmlns="http://www.w3.org/2000/svg"><circle cx="15" cy="15" r="14" stroke="#5A92FF" stroke-width="2"/><rect x="12.973" y="4.865" width="4.054" height="12.973" rx="2.027" fill="#5A92FF"/><circle cx="15" cy="22.297" r="2.027" fill="#5A92FF"/></symbol></svg>