<?xml version="1.0" encoding="utf-8"?><svg xmlns="http://www.w3.org/2000/svg" xmlns:xlink="http://www.w3.org/1999/xlink"><symbol viewBox="0 0 17 32" id="facebook" xmlns="http://www.w3.org/2000/svg"><path d="M15.54 18.11l.858-5.565h-5.364v-3.61c0-1.523.75-3.007 3.152-3.007h2.439V1.19s-2.213-.376-4.33-.376c-4.417 0-7.304 2.665-7.304 7.49v4.241H.081v5.565h4.91v13.453a19.568 19.568 0 006.043 0V18.11h4.507z"/></symbol><symbol viewBox="0 0 33 33" id="insta" xmlns="http://www.w3.org/2000/svg"><path d="M23.346.807H9.003C4.133.807.17 4.752.17 9.601v14.278c0 4.848 3.962 8.793 8.833 8.793h14.343c4.87 0 8.833-3.945 8.833-8.793V9.6c0-4.849-3.963-8.794-8.834-8.794zm5.993 23.072c0 3.29-2.688 5.966-5.993 5.966H9.003c-3.305 0-5.993-2.676-5.993-5.966V9.6c0-3.29 2.688-5.966 5.993-5.966h14.343c3.304 0 5.993 2.676 5.993 5.966v14.278z"/><path d="M16.174 8.53c-4.548 0-8.248 3.682-8.248 8.21 0 4.527 3.7 8.21 8.248 8.21 4.548 0 8.248-3.683 8.248-8.21 0-4.528-3.7-8.21-8.248-8.21zm0 13.593c-2.982 0-5.408-2.415-5.408-5.383 0-2.969 2.426-5.384 5.408-5.384s5.408 2.415 5.408 5.384c0 2.968-2.426 5.383-5.408 5.383zm8.594-15.991a2.078 2.078 0 00-2.083 2.073c0 .545.224 1.08.612 1.466.386.385.924.607 1.471.607.55 0 1.085-.222 1.473-.607.388-.386.61-.921.61-1.466a2.077 2.077 0 00-2.083-2.073z"/></symbol><symbol viewBox="0 0 99 53" fill="none" id="logo" xmlns="http://www.w3.org/2000/svg"><g clip-path="url(#cclip0)"><path d="M2.487 48.596H0l2.784-13.018H5.27L2.487 48.596zm7.845 0H7.664l2.357-11.007H6.348l.434-2.011h9.999l-.427 2.011H12.69l-2.357 11.007z" fill="#EF7D00"/><path d="M16.491 48.84l2.784-13.018h9.869L26.36 48.84h-2.487l2.379-11.107H21.35L18.979 48.84H16.49z" fill="#00A7E7"/><path d="M28.479 48.84h-2.162l7.158-13.018h3.152l1.569 13.018h-2.668l-1.164-10.834h-.145L28.48 48.84z" fill="#00A7E7"/><path d="M49.005 48.84h-2.66l-.521-3.707H40.66l-1.8 3.707h-2.118l7.36-13.018h3.058l1.844 13.018zm-3.362-4.979l-.767-5.805-3.253 5.805h4.02zm14.033 4.979H57.19l1.207-5.654h-5.263l-1.207 5.654h-2.488l2.784-13.018h2.487l-1.15 5.352h5.271l1.142-5.352h2.488L59.676 48.84zm4.57-13.018L61.462 48.84h8.965l.434-2.026h-6.478l.78-3.642h5.134l.405-1.89h-5.133l.751-3.527h5.965l3.543.014-2.35 11.071h2.668l2.35-11.071 3.687-.014.412-1.933h-18.35zM89.71 48.84h-2.661l-.52-3.707h-5.163l-1.8 3.707h-2.118l7.36-13.018h3.058L89.71 48.84zm-3.362-4.979l-.767-5.805-3.253 5.805h4.02z" fill="#00A7E7"/><path d="M31.653 20.548c3.99-5.805 10.18-10.39 17.612-12.954C60.602-5.23 69.705.905 73.695 6.301c10.809-2.536 17.511 5.058 20.07 10.482-3.91-4.656-8.242-6.833-12.688-7.307C91.799 14.756 99 24.564 99 35.8c0 6.38-2.328 12.3-6.297 17.193 3.08-4.483 4.851-9.7 4.851-15.253 0-12.587-9.052-23.393-21.965-28.034-17.496 3.097-34.964 27.308-34.964 27.308C51.81 20.117 61.274 11.545 69.017 7.954a42.718 42.718 0 00-7.562-.676c-3.391 0-6.673.395-9.782 1.135-8.684 7.565-14.822 20.038-14.822 20.038 3.716-8.37 7.317-14.477 10.744-18.838-6.493 2.277-12.016 6.1-15.942 10.935zM62.9 5.338c3.456 0 6.789.417 9.955 1.178.145-.043.297-.079.442-.115-6.5-5.46-13.029-4.16-18.733-.244a42.76 42.76 0 018.336-.819z" fill="#00A7E7"/></g><defs><clipPath id="cclip0"><path fill="#fff" d="M0 0h99v53H0z"/></clipPath></defs></symbol><symbol fill="none" viewBox="0 0 97 97" id="play" xmlns="http://www.w3.org/2000/svg"><path d="M96 48.281c0 26.108-21.262 47.281-47.5 47.281S1 74.39 1 48.282C1 22.171 22.262 1 48.5 1S96 22.173 96 48.281z" stroke="#fff" stroke-width="2"/><mask id="da" fill="#fff"><path fill-rule="evenodd" clip-rule="evenodd" d="M69.24 47.907L37.21 29.09v37.63l32.03-18.815z"/></mask><path d="M37.21 29.091l1.013-1.724-3.013-1.77v3.494h2zm32.03 18.816l1.013 1.724 2.936-1.724-2.936-1.725-1.013 1.724zM37.21 66.722h-2v3.494l3.013-1.77-1.013-1.724zm-1.013-35.906l32.03 18.815 2.026-3.449-32.03-18.815-2.026 3.449zm3.013 35.906v-37.63h-4v37.63h4zm29.017-20.54l-32.03 18.815 2.026 3.449 32.03-18.815-2.026-3.449z" fill="#fff" mask="url(#da)"/></symbol><symbol fill="none" viewBox="0 0 30 30" id="qwe" xmlns="http://www.w3.org/2000/svg"><circle cx="15" cy="15" r="14" stroke="#5A92FF" stroke-width="2"/><rect x="12.973" y="4.865" width="4.054" height="12.973" rx="2.027" fill="#5A92FF"/><circle cx="15" cy="22.297" r="2.027" fill="#5A92FF"/></symbol><symbol viewBox="0 0 36 21" id="vk" xmlns="http://www.w3.org/2000/svg"><path fill-rule="evenodd" clip-rule="evenodd" d="M5.764.915H1.97C.886.915.67 1.41.67 1.953c0 .972 1.286 5.791 5.988 12.165 3.135 4.353 7.552 6.713 11.57 6.713 2.412 0 2.71-.524 2.71-1.427v-3.29c0-1.048.229-1.257.992-1.257.563 0 1.528.272 3.779 2.37 2.572 2.488 2.996 3.604 4.443 3.604h3.793c1.084 0 1.626-.524 1.313-1.558-.342-1.031-1.57-2.527-3.2-4.3-.884-1.01-2.21-2.099-2.612-2.643-.562-.7-.402-1.01 0-1.632 0 0 4.622-6.296 5.104-8.434.242-.777 0-1.349-1.147-1.349H29.61c-.965 0-1.41.494-1.65 1.038 0 0-1.93 4.547-4.663 7.501-.884.855-1.286 1.127-1.768 1.127-.241 0-.59-.272-.59-1.049V2.264c0-.933-.28-1.349-1.084-1.349h-5.962c-.603 0-.965.433-.965.844 0 .884 1.366 1.088 1.507 3.575v5.403c0 1.184-.221 1.4-.703 1.4-1.286 0-4.415-4.569-6.27-9.795C7.098 1.326 6.734.915 5.764.915z"/></symbol><symbol viewBox="0 0 58 58" id="youtube" xmlns="http://www.w3.org/2000/svg"><path d="M45.968 19.87c-.398-1.55-1.574-2.77-3.065-3.185-2.704-.753-13.548-.753-13.548-.753s-10.844 0-13.547.753c-1.492.415-2.668 1.636-3.066 3.186-.725 2.811-.725 8.674-.725 8.674s0 5.863.725 8.675c.398 1.55 1.574 2.77 3.066 3.186 2.703.752 13.547.752 13.547.752s10.844 0 13.548-.752c1.491-.415 2.667-1.636 3.065-3.186.725-2.812.725-8.675.725-8.675s0-5.863-.725-8.674zm-20.16 14V23.221l9.064 5.323-9.063 5.324z"/></symbol></svg>